<?xml version="1.0" standalone="no"?>
<!DOCTYPE svg PUBLIC "-//W3C//DTD SVG 20010904//EN"
 "http://www.w3.org/TR/2001/REC-SVG-20010904/DTD/svg10.dtd">
<svg version="1.0" xmlns="http://www.w3.org/2000/svg"
 width="420.000000pt" height="420.000000pt" viewBox="0 0 420.000000 420.000000"
 preserveAspectRatio="xMidYMid meet">
<metadata>
Created by potrace 1.11, written by Peter Selinger 2001-2013
</metadata>
<g transform="translate(0.000000,420.000000) scale(0.100000,-0.100000)"
fill="#000000" stroke="none">
<path d="M2003 3471 c-11 -18 -35 -22 -49 -9 -10 11 -34 -3 -28 -16 3 -6 -1
-3 -9 7 -16 20 -32 23 -21 5 5 -10 4 -10 -6 -1 -17 16 -40 5 -32 -15 5 -14 4
-15 -10 -2 -9 8 -14 18 -12 21 5 8 -29 5 -44 -5 -7 -4 -12 -2 -12 6 0 10 -2
10 -9 -1 -5 -7 -14 -10 -21 -6 -9 6 -9 2 1 -16 11 -22 11 -23 -5 -9 -32 26
-53 20 -47 -13 1 -4 -12 -1 -28 7 -15 8 -32 12 -36 8 -3 -4 -12 -7 -18 -7 -7
0 -11 -8 -11 -17 1 -16 -19 -19 -33 -3 -4 4 -3 5 3 2 6 -3 11 0 11 8 0 11 -4
12 -14 4 -7 -6 -11 -15 -8 -19 3 -4 -2 -10 -10 -13 -8 -4 -13 -1 -11 6 1 7 1
9 -1 4 -3 -4 -9 -5 -14 -2 -5 4 -6 -1 -3 -9 3 -9 2 -16 -4 -16 -6 0 -12 5 -14
11 -5 16 -46 -10 -54 -34 -5 -17 -7 -17 -18 -1 -15 19 -32 3 -20 -18 4 -7 -1
-5 -12 4 -16 14 -22 15 -38 3 -10 -8 -23 -12 -29 -8 -6 3 -7 1 -3 -5 4 -7 2
-12 -4 -12 -7 0 -7 -7 1 -22 11 -21 11 -22 -5 -8 -23 18 -46 22 -40 6 3 -7 -2
-19 -10 -26 -9 -7 -13 -17 -9 -24 4 -6 -1 -5 -10 3 -19 15 -23 26 -5 15 7 -4
8 -3 4 4 -10 17 -29 15 -23 -3 4 -8 2 -17 -4 -20 -5 -4 -6 -11 -3 -17 4 -7 2
-8 -5 -4 -6 4 -14 0 -17 -9 -5 -13 -9 -14 -15 -4 -4 7 -15 14 -23 15 -9 1 -14
-2 -10 -7 3 -5 9 -7 13 -5 4 3 8 -1 8 -9 0 -11 -5 -11 -19 -4 -18 10 -19 9 -7
-13 12 -22 11 -22 -6 -8 -17 14 -18 13 -12 -2 10 -27 -12 -32 -23 -6 -9 22
-10 21 -7 -7 2 -26 -1 -30 -21 -29 -19 1 -20 -1 -10 -14 10 -12 10 -14 1 -8
-8 4 -13 2 -13 -4 0 -6 -5 -8 -12 -4 -8 5 -9 2 -4 -11 5 -15 4 -16 -9 -5 -13
11 -14 10 -8 -6 6 -17 5 -18 -12 -4 -17 14 -18 14 -6 -8 12 -22 11 -23 -9 -12
-13 7 -20 8 -16 2 3 -6 -4 -18 -16 -28 -13 -9 -16 -14 -7 -11 9 3 16 -1 16 -8
0 -7 -6 -11 -13 -8 -6 2 -15 -1 -20 -8 -4 -7 -3 -10 4 -5 6 3 14 1 18 -5 4 -7
3 -9 -3 -6 -13 8 -37 -18 -29 -32 3 -5 -2 -7 -13 -4 -15 4 -18 0 -16 -21 2
-14 0 -24 -5 -21 -4 3 -11 -2 -14 -11 -5 -12 -9 -14 -20 -5 -11 9 -13 5 -10
-21 3 -23 1 -29 -5 -18 -6 8 -8 17 -5 21 2 4 -1 11 -8 15 -7 4 -10 3 -5 -1 4
-5 -1 -17 -10 -28 -10 -11 -12 -17 -6 -13 9 5 12 0 11 -18 -1 -13 -5 -23 -9
-20 -4 2 -12 -3 -19 -11 -15 -18 -34 -20 -24 -3 4 7 3 8 -5 4 -9 -6 -9 -11 1
-24 11 -13 10 -15 -5 -9 -11 4 -16 3 -12 -3 3 -6 2 -10 -3 -10 -5 0 -8 -11 -7
-25 3 -22 0 -25 -23 -20 -26 4 -26 3 -8 -10 19 -14 19 -15 2 -15 -16 0 -17 -2
-5 -17 9 -11 10 -14 2 -9 -7 4 -21 2 -30 -4 -13 -8 -13 -10 -3 -7 10 3 16 -2
16 -13 0 -15 -4 -16 -18 -9 -22 12 -23 6 -4 -14 12 -11 11 -15 -8 -27 -19 -12
-20 -12 -7 3 16 20 6 23 -13 5 -10 -10 -9 -16 8 -31 21 -18 21 -18 -4 -6 -23
11 -24 11 -11 -5 13 -16 13 -17 -4 -14 -22 3 -27 -19 -11 -41 9 -12 8 -13 -3
-6 -11 6 -13 4 -8 -8 4 -11 1 -17 -8 -17 -8 0 -15 -5 -15 -11 0 -5 6 -7 13 -3
9 6 9 5 0 -7 -10 -12 -18 -42 -22 -81 -1 -5 -6 -8 -12 -8 -8 0 -7 6 2 18 13
15 12 16 -4 3 -9 -8 -15 -16 -12 -19 3 -3 0 -11 -5 -18 -8 -8 -7 -16 2 -26 7
-7 14 -20 16 -27 3 -12 0 -12 -12 -2 -11 9 -16 9 -22 0 -4 -8 -3 -9 4 -5 7 4
12 2 12 -3 0 -20 2 -26 11 -37 5 -7 3 -11 -6 -11 -8 0 -12 4 -9 9 3 4 -2 5
-11 2 -14 -6 -14 -8 2 -20 10 -7 14 -14 9 -14 -5 0 -2 -8 5 -17 12 -14 12 -16
0 -8 -11 6 -13 3 -9 -12 3 -12 2 -27 -3 -34 -4 -7 -3 -22 3 -32 7 -14 7 -17
-1 -13 -7 5 -10 -3 -7 -23 2 -16 0 -35 -5 -42 -4 -7 -4 -18 1 -24 5 -6 11 -30
14 -54 5 -39 4 -42 -8 -25 -13 17 -14 16 -9 -9 3 -16 10 -24 17 -20 7 4 7 2
-1 -7 -14 -16 4 -63 21 -53 6 4 2 -3 -8 -15 -11 -12 -16 -25 -13 -29 4 -3 7
-1 7 5 0 21 16 13 17 -8 1 -11 -2 -18 -8 -15 -5 4 -9 2 -9 -3 0 -5 10 -14 22
-21 19 -9 19 -11 3 -6 -20 5 -20 5 -1 -10 17 -13 17 -15 4 -15 -9 0 -19 -4
-22 -9 -4 -5 3 -7 14 -4 23 6 26 -6 8 -26 -11 -12 -10 -13 6 -7 15 5 17 3 13
-16 -4 -12 -1 -28 5 -35 8 -10 7 -13 -2 -13 -8 0 -10 -3 -7 -6 4 -4 15 -1 24
7 10 7 15 9 11 5 -4 -5 -3 -15 4 -23 8 -10 8 -12 -4 -8 -9 4 -15 0 -15 -9 0
-8 4 -13 9 -10 8 5 12 -11 8 -31 -1 -5 9 -1 22 10 12 11 17 13 11 5 -13 -17
-14 -60 -1 -60 4 0 8 5 8 12 0 6 3 9 6 5 3 -3 2 -12 -2 -19 -14 -22 -13 -37 2
-31 9 3 14 -1 14 -12 0 -14 3 -15 14 -6 11 9 12 6 8 -14 -2 -15 0 -25 7 -25 6
0 11 -5 11 -11 0 -5 -4 -8 -8 -5 -5 3 -9 -1 -9 -9 0 -19 7 -19 21 0 10 13 13
12 25 -7 13 -21 13 -22 -2 -9 -11 8 -17 9 -17 3 0 -16 37 -34 43 -22 3 6 4 5
3 -2 -2 -7 -13 -12 -27 -10 -16 2 -9 -4 21 -20 35 -18 46 -29 48 -51 2 -15 9
-27 18 -27 16 0 18 -12 4 -26 -6 -6 -3 -10 9 -10 11 0 17 5 13 11 -3 5 2 4 11
-4 18 -15 23 -26 7 -16 -6 3 -10 1 -10 -4 0 -15 27 -14 32 1 3 7 7 5 11 -6 4
-9 3 -15 -2 -12 -5 3 -11 -1 -15 -9 -3 -8 0 -17 6 -21 7 -4 8 -3 4 4 -4 7 -3
12 1 12 5 0 14 -9 20 -19 10 -15 10 -21 0 -25 -7 -3 -6 -5 3 -4 24 3 61 -22
54 -35 -4 -7 2 -4 14 6 20 19 26 7 9 -20 -5 -7 -1 -9 13 -6 12 3 20 0 20 -6 0
-7 -4 -9 -10 -6 -16 10 -11 -1 7 -16 9 -8 14 -9 10 -3 -4 7 2 14 13 17 16 4
18 2 10 -13 -10 -18 -4 -30 14 -30 6 0 4 5 -4 10 -13 8 -12 10 3 10 11 0 17
-8 17 -21 0 -11 4 -18 9 -14 5 3 13 0 16 -6 4 -6 18 -8 34 -4 25 6 25 6 6 -9
-16 -13 -17 -15 -2 -10 20 7 23 -6 5 -24 -8 -8 -8 -12 -1 -12 6 0 13 7 17 15
6 16 36 10 36 -7 0 -6 -8 -4 -17 3 -16 13 -17 12 -5 -3 14 -17 42 -14 42 5 0
6 3 7 6 4 4 -4 1 -13 -6 -22 -8 -9 -8 -15 -2 -15 6 0 14 5 17 10 10 16 25 1
18 -17 -4 -10 -2 -14 5 -9 6 3 16 -2 22 -11 11 -17 11 -17 6 -1 -3 10 -1 18 4
18 6 0 10 -7 10 -15 0 -8 5 -15 11 -15 5 0 7 -4 4 -10 -3 -5 0 -7 8 -4 18 6
50 -24 41 -38 -4 -7 -2 -8 4 -4 15 9 0 41 -23 50 -8 3 -15 10 -15 16 0 7 5 7
14 -2 32 -31 57 -48 69 -48 8 0 7 4 -3 10 -12 7 -10 9 8 7 14 -1 18 -5 12 -11
-17 -17 -11 -29 7 -15 9 8 14 10 11 4 -3 -5 1 -17 10 -25 14 -13 15 -12 10 2
-5 12 -2 15 13 11 20 -6 27 -23 8 -23 -5 0 -7 -5 -3 -11 4 -8 12 -3 20 12 12
22 13 22 14 4 0 -17 2 -17 10 -5 8 13 10 13 10 -2 0 -9 5 -20 12 -24 7 -4 8
-3 4 4 -4 7 -4 12 1 13 4 0 16 2 26 4 9 2 15 -1 11 -6 -3 -5 -11 -6 -17 -2 -7
4 -6 0 2 -10 15 -18 26 -23 16 -7 -13 20 14 9 29 -12 9 -12 16 -17 16 -10 0 8
5 10 12 6 8 -5 9 -2 4 11 -5 15 -4 16 9 5 8 -7 13 -16 10 -20 -7 -11 22 -6 32
5 4 4 2 5 -6 0 -10 -5 -12 -4 -7 4 4 6 12 9 17 5 5 -3 7 -9 5 -13 -3 -4 3 -12
13 -18 14 -9 18 -8 18 3 0 7 -5 10 -10 7 -6 -3 -7 -1 -3 5 11 18 26 14 26 -5
0 -15 2 -16 10 -3 6 10 10 11 10 3 0 -7 5 -13 11 -13 5 0 8 4 5 8 -2 4 4 9 15
9 17 2 18 0 4 -13 -8 -9 -15 -18 -15 -22 0 -3 5 -1 12 6 15 15 31 16 22 0 -4
-7 -3 -8 5 -4 6 4 9 12 6 17 -4 5 -1 9 4 9 6 0 11 -8 11 -17 0 -15 2 -15 9 -4
5 8 17 16 25 17 9 1 14 -2 10 -7 -3 -5 -10 -7 -15 -4 -5 4 -9 1 -9 -5 0 -7 8
-9 21 -5 12 4 19 3 16 -2 -3 -5 3 -9 13 -9 14 0 16 3 8 13 -6 8 -8 16 -4 20 3
3 6 1 6 -6 0 -7 7 -11 15 -8 8 4 17 1 21 -5 4 -7 3 -8 -4 -4 -7 4 -12 2 -12
-3 0 -15 40 -8 49 8 6 10 10 9 14 -3 7 -18 28 -22 25 -5 -2 6 3 13 10 14 7 2
8 1 2 -2 -5 -2 -7 -9 -4 -14 3 -6 12 -5 22 3 13 11 14 11 7 -1 -6 -11 -4 -13
7 -8 9 3 21 0 27 -6 9 -9 10 -7 5 8 -7 18 -6 19 11 5 11 -9 16 -10 11 -3 -4 7
-2 13 3 13 6 0 11 -4 11 -8 0 -4 10 -8 21 -9 20 -2 20 -1 4 11 -14 10 -15 15
-5 21 9 5 11 4 6 -3 -4 -7 -1 -12 8 -12 8 0 17 -6 19 -12 3 -7 6 -2 6 12 1 19
3 22 10 10 6 -8 7 -18 4 -24 -3 -5 -1 -6 6 -2 6 4 9 11 6 16 -3 5 0 12 6 16 7
4 9 3 6 -3 -8 -13 26 -23 43 -13 7 4 9 14 6 21 -4 8 0 5 8 -5 9 -11 16 -14 16
-8 0 7 4 12 10 12 5 0 7 -8 3 -18 -5 -15 -4 -15 9 1 14 19 37 20 51 2 5 -5 6
0 2 12 -3 12 -1 24 5 28 6 4 9 1 8 -6 -2 -6 3 -14 11 -17 9 -3 11 0 6 9 -5 8
2 5 15 -6 l23 -20 -13 25 c-12 23 -12 24 3 11 13 -10 17 -10 17 -1 0 9 4 9 13
2 8 -7 18 -7 27 -2 8 5 18 6 24 3 5 -3 6 -1 2 6 -4 6 -12 8 -18 5 -7 -4 -8 -2
-4 4 7 11 31 7 53 -10 7 -6 14 -4 19 3 4 7 3 9 -3 6 -6 -4 -13 0 -16 7 -4 10
0 13 14 11 10 -2 23 -6 28 -9 5 -4 7 3 4 14 -6 21 11 28 23 8 5 -7 3 -8 -7 -3
-12 8 -12 6 0 -8 16 -20 22 -22 19 -5 -2 7 2 13 7 13 21 2 56 17 52 22 -3 2
-15 -1 -27 -7 -18 -10 -21 -9 -15 1 6 9 3 11 -9 6 -9 -4 -15 -3 -12 2 4 5 33
8 66 7 52 -1 57 0 37 11 l-22 12 25 -1 c14 -1 31 -6 39 -12 12 -9 12 -8 3 11
-17 30 -15 41 3 17 14 -19 14 -19 16 1 1 11 1 24 0 28 -1 5 3 6 9 2 6 -3 8
-10 5 -15 -3 -5 3 -8 14 -7 16 1 18 4 8 16 -8 11 -3 10 18 -3 30 -19 30 -19
13 0 -16 19 -16 20 3 21 12 1 17 -3 13 -10 -3 -7 1 -3 10 7 8 10 13 23 9 29
-3 6 -1 7 6 3 6 -4 8 -13 4 -19 -3 -7 3 -3 15 7 27 23 27 27 5 20 -15 -5 -16
-4 -3 5 11 8 18 7 26 -4 10 -14 13 -13 24 0 11 13 10 14 -2 10 -9 -4 -15 0
-15 8 0 9 7 12 19 9 10 -2 18 1 18 9 0 7 3 10 6 6 8 -8 34 18 34 33 0 6 4 9
10 5 5 -3 7 -13 4 -23 -5 -14 -4 -14 4 -2 6 8 8 18 6 22 -3 4 0 8 6 8 6 0 8 5
4 11 -5 8 -1 8 14 0 22 -12 41 2 21 15 -8 5 -9 3 -4 -6 5 -9 4 -11 -4 -6 -6 4
-9 12 -5 17 3 5 9 7 14 4 4 -3 11 2 14 11 4 9 9 14 13 10 7 -7 39 35 36 46 -2
4 4 5 12 2 8 -4 15 -10 15 -16 0 -5 5 -6 11 -3 6 5 4 11 -7 19 -14 11 -15 14
-3 22 17 10 37 15 64 16 11 0 14 2 8 5 -16 6 -17 29 -1 39 6 4 8 3 4 -4 -3 -6
-1 -14 5 -18 8 -4 9 -3 5 4 -4 7 -2 12 5 12 7 0 5 8 -7 22 -10 12 -14 18 -7
15 6 -4 14 -3 18 2 3 6 13 7 23 4 15 -6 16 -5 2 12 -14 17 -14 18 9 6 13 -7
21 -9 17 -3 -7 12 18 35 28 24 4 -4 6 0 4 8 -1 8 3 14 10 12 17 -3 15 3 -5 19
-14 12 -16 12 -8 0 5 -10 4 -12 -4 -7 -6 4 -9 12 -5 17 3 5 10 7 15 4 5 -4 17
-1 26 5 16 11 16 11 1 6 -10 -3 -20 0 -24 6 -4 6 -3 8 4 4 6 -3 13 -2 17 4 4
6 10 8 15 5 5 -3 11 -1 14 4 4 5 1 13 -5 17 -8 5 -9 3 -4 -6 5 -9 4 -11 -4 -6
-14 9 -3 29 13 23 7 -3 13 1 13 8 0 8 -7 11 -16 7 -9 -3 -13 -2 -9 2 3 4 14 9
24 10 10 2 20 8 22 14 2 8 -3 10 -14 5 -12 -4 -15 -3 -10 5 4 7 15 12 25 12
27 0 43 43 24 63 -15 15 -15 16 3 11 20 -5 53 34 37 45 -14 10 -12 40 3 34 8
-3 11 -10 7 -17 -3 -6 -2 -8 2 -3 5 4 10 18 12 30 2 18 1 19 -7 7 -8 -12 -9
-9 -6 10 3 14 5 28 5 33 1 4 6 7 12 7 8 0 8 -4 0 -14 -9 -11 -8 -15 4 -20 9
-3 13 -2 10 4 -3 5 0 20 7 32 7 13 11 27 10 32 -2 4 2 14 9 22 9 11 6 16 -12
23 -17 7 -19 10 -7 10 9 1 20 10 23 21 4 11 11 17 17 14 7 -5 8 -2 3 5 -5 9
-10 10 -18 2 -6 -6 -16 -11 -21 -11 -7 0 -8 3 -1 8 15 11 42 47 29 39 -6 -3
-10 5 -10 22 0 23 3 27 20 24 18 -4 18 -2 -4 12 -16 11 -18 14 -6 10 17 -5 17
-4 5 12 -8 9 -9 14 -2 10 21 -13 26 14 6 35 -10 12 -13 18 -6 15 6 -4 14 -3
18 3 3 5 1 10 -4 10 -6 0 -11 5 -11 11 0 6 6 9 14 6 19 -8 13 28 -8 49 -20 19
-21 31 -2 15 11 -9 16 -9 22 0 4 8 3 9 -4 5 -15 -9 -16 6 -1 21 7 7 6 14 -4
24 -7 8 -12 20 -9 28 3 8 0 11 -7 7 -6 -4 -11 -2 -11 3 0 6 8 11 18 11 14 0
15 2 2 10 -13 9 -13 11 0 20 12 8 11 10 -8 10 -13 0 -21 4 -17 10 3 5 11 8 18
6 7 -1 8 -1 4 2 -4 2 -2 11 5 20 10 14 10 15 -2 5 -8 -7 -17 -13 -21 -13 -12
0 -3 31 12 41 11 7 11 9 1 9 -7 0 -10 5 -6 11 4 8 -1 9 -17 4 -13 -3 -19 -3
-13 2 17 13 22 36 12 56 -6 12 -5 24 4 35 11 15 11 15 -3 4 -14 -10 -18 -10
-23 3 -3 8 0 15 7 15 8 0 7 3 -2 9 -8 5 -19 8 -25 7 -6 -2 -8 -1 -3 2 4 2 12
13 18 25 10 21 10 21 -5 3 -14 -17 -16 -17 -16 -4 0 9 5 20 12 24 7 5 5 11 -8
21 -16 12 -17 15 -4 23 8 5 11 10 6 10 -5 0 -18 -8 -29 -17 -15 -13 -18 -14
-12 -3 13 21 15 69 4 75 -5 4 -6 -1 -3 -9 3 -9 1 -16 -5 -16 -6 0 -11 11 -11
25 0 19 -4 23 -17 19 -15 -5 -16 -4 -3 5 13 10 13 13 -3 25 -10 8 -19 27 -20
44 -1 16 -5 28 -9 25 -5 -2 -8 1 -8 6 0 6 -5 11 -11 11 -8 0 -8 -4 0 -14 9
-11 9 -16 0 -22 -7 -4 -9 -3 -5 4 3 6 2 13 -3 17 -6 3 -7 13 -4 22 5 11 3 14
-6 8 -10 -6 -11 -3 -1 15 7 13 8 20 2 16 -6 -3 -17 3 -25 14 -7 11 -17 17 -20
13 -13 -12 -7 13 6 26 10 11 8 11 -10 2 -19 -10 -23 -9 -23 4 0 10 5 13 12 9
7 -4 8 -3 4 4 -4 6 -14 8 -22 5 -10 -4 -15 -1 -14 8 4 25 0 40 -8 35 -15 -9
-31 10 -34 40 -1 22 -7 30 -22 31 -19 2 -19 1 -3 -8 19 -11 23 -29 5 -29 -6 0
-9 3 -5 6 3 4 -4 15 -16 26 -12 11 -16 17 -9 13 6 -3 12 -1 12 4 0 6 -4 11
-10 11 -5 0 -10 5 -10 11 0 5 6 7 13 3 8 -5 8 -2 -2 9 -15 18 -26 23 -16 7 3
-5 0 -10 -8 -10 -10 0 -13 7 -10 20 3 11 0 20 -6 20 -9 0 -9 6 -1 23 11 22 11
22 -7 -1 -18 -22 -20 -23 -34 -6 -8 10 -9 15 -2 11 6 -4 14 -3 18 3 3 5 -3 10
-14 10 -11 0 -23 5 -27 12 -5 7 -2 9 7 4 8 -4 6 -1 -3 7 -10 8 -15 17 -11 21
4 4 -1 4 -12 0 -15 -6 -17 -4 -12 10 6 14 3 16 -13 11 -11 -4 -20 -2 -20 4 0
6 5 11 12 11 6 0 8 3 5 6 -4 4 -14 1 -23 -7 -16 -13 -16 -12 -5 10 7 13 8 21
3 17 -6 -3 -12 -3 -15 1 -2 5 -2 3 -1 -4 2 -7 -1 -15 -7 -18 -5 -4 -9 -3 -8 2
4 23 -2 43 -11 38 -6 -4 -7 -12 -4 -18 4 -7 3 -8 -2 -4 -4 4 -9 18 -9 29 0 12
-7 23 -15 25 -13 4 -13 3 0 -6 12 -8 13 -12 2 -23 -11 -11 -13 -10 -10 2 2 8
-2 14 -8 13 -8 -1 -10 6 -7 20 5 22 5 22 -11 2 -13 -16 -15 -17 -10 -2 7 20
-21 25 -29 5 -4 -10 -6 -10 -6 -1 -1 6 4 15 9 18 6 3 10 12 10 18 0 8 -3 8 -9
-1 -7 -11 -11 -11 -24 2 -18 19 -31 21 -21 4 5 -7 3 -8 -6 -3 -10 6 -9 11 6
22 18 13 17 13 -6 11 -15 -2 -24 2 -23 9 3 15 -26 10 -39 -8 -8 -11 -9 -11 -4
4 3 9 1 17 -5 17 -6 0 -8 4 -5 9 3 5 -2 8 -12 7 -10 0 -16 5 -14 13 3 12 0 12
-12 1 -17 -14 -22 -25 -7 -15 5 3 12 1 15 -4 8 -12 -13 -8 -40 7 -12 6 -25 8
-29 4 -5 -4 -5 -1 -1 6 4 7 13 9 19 6 8 -5 8 -3 0 6 -19 20 -46 22 -39 3 5
-12 4 -13 -7 -5 -8 7 -18 8 -23 4 -4 -4 -3 0 4 10 13 17 7 26 -15 22 -7 -1
-17 -2 -23 -3 -5 0 -10 -6 -10 -12 0 -8 5 -8 15 1 9 7 15 8 15 2 0 -20 -30
-21 -41 0 -7 13 -7 18 -1 14 6 -3 14 -1 18 5 4 7 3 9 -4 5 -6 -3 -13 -2 -16 2
-6 11 -36 9 -55 -3 -10 -5 -12 -4 -7 3 10 16 -7 15 -23 0 -11 -11 -12 -8 -7
12 7 24 6 24 -8 6 -9 -11 -16 -14 -16 -7 0 7 -4 9 -10 6 -5 -3 -10 -1 -10 5 0
6 -5 8 -12 3 -20 -12 -48 -14 -48 -3 0 6 3 9 8 9 4 -1 14 -1 22 0 13 1 13 3 1
10 -9 6 -23 4 -38 -6 -13 -8 -23 -11 -23 -7 0 5 -5 2 -11 -6 -9 -13 -10 -13
-6 0 2 8 9 14 14 13 5 -1 10 4 10 12 0 12 -4 11 -21 -1 -25 -17 -40 -18 -30
-1 5 7 0 6 -11 -3 -10 -8 -16 -10 -12 -3 4 6 2 15 -4 19 -8 4 -9 3 -5 -4 4 -7
2 -12 -4 -12 -6 0 -8 -5 -4 -12 4 -7 3 -8 -5 -4 -6 4 -8 12 -5 18 5 7 2 8 -7
2 -21 -13 -93 -14 -80 -1 6 6 11 16 11 22 0 5 -4 4 -9 -4 -7 -11 -13 -12 -24
-3 -11 9 -14 9 -14 -3 0 -8 5 -11 11 -8 6 3 8 2 3 -2 -9 -11 -57 -13 -51 -3 5
8 -18 12 -45 9 -7 -2 -10 2 -6 9 5 8 0 8 -16 -1 -13 -7 -31 -15 -39 -20 -8 -4
-13 -13 -12 -21 2 -7 0 -9 -4 -5 -11 11 -14 38 -3 32 5 -4 6 1 3 9 -8 20 -7
20 -21 -3z m95 -26 c-3 -3 -9 2 -12 12 -6 14 -5 15 5 6 7 -7 10 -15 7 -18z
m27 15 c3 -5 1 -10 -4 -10 -6 0 -11 5 -11 10 0 6 2 10 4 10 3 0 8 -4 11 -10z
m-305 -23 c0 -7 -4 -6 -10 3 -8 12 -10 12 -10 1 0 -8 -3 -12 -6 -8 -9 9 6 28
17 22 5 -4 9 -12 9 -18z m-97 -12 c-3 -9 -8 -14 -10 -11 -3 3 -2 9 2 15 9 16
15 13 8 -4z m-73 -4 c0 -14 -29 -21 -36 -9 -4 6 -3 8 4 4 6 -3 13 -2 17 4 8
12 15 13 15 1z m951 -18 c13 -16 12 -17 -3 -4 -17 13 -22 21 -14 21 2 0 10 -8
17 -17z m-1107 -38 c-4 -8 -11 -15 -16 -15 -6 0 -5 6 2 15 7 8 14 15 16 15 2
0 1 -7 -2 -15z m-101 -38 c3 -8 -1 -14 -9 -14 -15 0 -18 9 -7 20 9 9 10 9 16
-6z m-36 -22 c0 -8 -4 -12 -9 -9 -5 3 -6 10 -3 15 9 13 12 11 12 -6z m1522 1
c9 -11 9 -16 -1 -22 -7 -4 -10 -4 -6 1 4 4 3 14 -3 22 -6 7 -9 13 -6 13 2 0
10 -6 16 -14z m-1882 -288 c2 -17 0 -19 -7 -8 -5 8 -6 18 -4 22 8 12 10 10 11
-14z m2373 -162 c0 -3 -4 -8 -10 -11 -5 -3 -10 -1 -10 4 0 6 5 11 10 11 6 0
10 -2 10 -4z m80 -112 c0 -2 -9 0 -20 6 -11 6 -20 13 -20 16 0 2 9 0 20 -6 11
-6 20 -13 20 -16z m-2810 -239 c7 -9 8 -15 2 -15 -5 0 -12 7 -16 15 -3 8 -4
15 -2 15 2 0 9 -7 16 -15z m2970 -31 c0 -2 -7 -4 -15 -4 -8 0 -15 4 -15 10 0
5 7 7 15 4 8 -4 15 -8 15 -10z m-3031 -161 c-6 -7 -15 -10 -20 -7 -13 8 -3 21
15 21 12 0 13 -4 5 -14z m3071 13 c0 -3 -4 -8 -10 -11 -5 -3 -10 -1 -10 4 0 6
5 11 10 11 6 0 10 -2 10 -4z m40 -241 c0 -12 -19 -12 -23 0 -4 9 -1 12 9 8 7
-3 14 -7 14 -8z m-3125 -243 c-3 -3 -11 0 -18 7 -9 10 -8 11 6 5 10 -3 15 -9
12 -12z m3075 -137 c-7 -8 -18 -15 -24 -15 -6 0 -2 7 8 15 25 19 32 19 16 0z
m-5 -35 c-3 -5 -11 -10 -16 -10 -6 0 -7 5 -4 10 3 6 11 10 16 10 6 0 7 -4 4
-10z m-3020 -50 c3 -5 1 -10 -4 -10 -6 0 -11 5 -11 10 0 6 2 10 4 10 3 0 8 -4
11 -10z m2965 -85 c0 -2 -6 -8 -13 -14 -10 -8 -14 -7 -14 2 0 8 6 14 14 14 7
0 13 -1 13 -2z m-40 -75 c-6 -11 -13 -20 -16 -20 -3 0 -2 5 2 12 5 8 2 9 -9 5
-10 -3 -17 -4 -17 -1 0 4 33 20 48 23 1 1 -2 -8 -8 -19z m-120 -183 c0 -2 -9
-12 -20 -22 -24 -21 -27 -14 -4 9 15 15 24 20 24 13z m-2435 -179 c5 4 5 1 1
-6 -6 -11 -12 -10 -27 4 -10 9 -19 22 -19 27 0 6 8 0 19 -11 10 -12 22 -18 26
-14z m681 -374 c1 -9 0 -13 -4 -10 -3 4 -7 14 -8 22 -1 9 0 13 4 10 3 -4 7
-14 8 -22z"/>
<path d="M2260 3481 c0 -10 19 -25 25 -20 1 2 -3 10 -11 17 -8 7 -14 8 -14 3z"/>
<path d="M1966 3472 c-3 -5 1 -9 9 -9 8 0 12 4 9 9 -3 4 -7 8 -9 8 -2 0 -6 -4
-9 -8z"/>
<path d="M1670 3440 c0 -5 5 -10 11 -10 5 0 7 5 4 10 -3 6 -8 10 -11 10 -2 0
-4 -4 -4 -10z"/>
<path d="M1436 3367 c3 -10 9 -15 12 -12 3 3 0 11 -7 18 -10 9 -11 8 -5 -6z"/>
<path d="M1263 3275 c0 -8 4 -12 9 -9 5 3 6 10 3 15 -9 13 -12 11 -12 -6z"/>
<path d="M1210 3241 c0 -7 -4 -10 -8 -7 -5 3 -9 -2 -9 -10 0 -13 2 -13 16 0 8
9 12 19 8 22 -4 4 -7 2 -7 -5z"/>
<path d="M1070 3146 c0 -2 7 -7 16 -10 8 -3 12 -2 9 4 -6 10 -25 14 -25 6z"/>
<path d="M882 2918 c2 -7 -2 -12 -9 -11 -7 2 -10 -4 -6 -13 3 -8 6 -14 7 -12
1 2 7 10 14 20 9 11 10 18 2 23 -6 4 -9 1 -8 -7z"/>
<path d="M788 2813 c6 -2 10 -9 6 -14 -9 -15 2 -10 16 6 10 13 9 15 -11 14
-13 0 -18 -3 -11 -6z"/>
<path d="M716 2727 c3 -10 9 -15 12 -12 3 3 0 11 -7 18 -10 9 -11 8 -5 -6z"/>
<path d="M520 2165 c-7 -9 -8 -15 -2 -15 5 0 12 7 16 15 3 8 4 15 2 15 -2 0
-9 -7 -16 -15z"/>
<path d="M525 2129 c-4 -6 -5 -12 -2 -15 2 -3 7 2 10 11 7 17 1 20 -8 4z"/>
<path d="M518 1933 c7 -3 16 -2 19 1 4 3 -2 6 -13 5 -11 0 -14 -3 -6 -6z"/>
<path d="M3660 1840 c0 -5 7 -7 15 -4 8 4 15 8 15 10 0 2 -7 4 -15 4 -8 0 -15
-4 -15 -10z"/>
<path d="M775 1269 c-4 -5 -1 -8 7 -7 7 2 12 -3 10 -10 -1 -8 2 -11 8 -7 5 3
10 1 10 -6 0 -7 2 -10 5 -7 9 8 -5 36 -20 42 -8 3 -17 1 -20 -5z"/>
<path d="M3345 1200 c-3 -5 -1 -10 4 -10 6 0 11 5 11 10 0 6 -2 10 -4 10 -3 0
-8 -4 -11 -10z"/>
<path d="M3256 1111 c-3 -4 6 -8 20 -9 13 -1 24 0 24 2 0 7 -40 14 -44 7z"/>
<path d="M3220 1059 c-7 -11 -10 -23 -7 -25 2 -2 9 7 15 21 14 30 7 33 -8 4z"/>
</g>
</svg>
